<?xml version="1.0" encoding="utf-8"?>
<!-- Generator: Adobe Illustrator 24.0.1, SVG Export Plug-In . SVG Version: 6.00 Build 0)  -->
<svg version="1.1" id="Layer_1" xmlns="http://www.w3.org/2000/svg" xmlns:xlink="http://www.w3.org/1999/xlink" x="0px" y="0px"
	 viewBox="0 0 781.9 191" style="enable-background:new 0 0 781.9 191;" xml:space="preserve">
<style type="text/css">
	.st0{fill:#455560;}
</style>
<g id="DAI">
	<g>
		<rect class="st0" width="290" height="57.1"/>
		<rect y="67" class="st0" width="290" height="57.1"/>
		<rect y="133.9" class="st0" width="290" height="57.1"/>
		<path class="st0" d="M394.8,148.2h10.7c37.7-0.8,52.7-15.5,52.7-53.8c0-34.8-18.7-51.6-52.7-51.6h-10.7V148.2z M337.7,0h76.6
			c58.6,0,93.6,35.6,93.6,94.7c0,62.6-35.6,96.3-93.6,96.3h-76.6V0z"/>
		<rect x="724.8" y="0" class="st0" width="57.1" height="191"/>
		<path class="st0" d="M583.8,119.9h43.3L606,53h-0.5L583.8,119.9z M575.8,0h61l71.4,191h-57.5l-11.8-34.2h-66.6l-12,34.2h-55.9
			L575.8,0z"/>
	</g>
</g>
</svg>
